# xmcd
#
# Track frame offsets:
#	150
#	2678
#	20359
#	35125
#	53397
#	74113
#	93462
#	111100
#	133502
#	149048
#	172605
#	193725
#
# Disc length: 2733 seconds
#
# Revision: 1
# Processed by: cddbd v1.4PL0 Copyright (c) Steve Scherf et al.
# Submitted via: CDmax 1.9
#
DISCID=a40aab0c
DTITLE=Psychopathic Records - Big Money Hustlas
DYEAR=2002
DGENRE=Rap
TTITLE0=Intro
TTITLE1=Big $
TTITLE2=Sugar Bear
TTITLE3=Fuck the World
TTITLE4=Cotton Candy
TTITLE5=Bury Me Alive
TTITLE6=Bring It On
TTITLE7=Ninja
TTITLE8=Bitches
TTITLE9=Rock The Dead
TTITLE10=Spin the Bottle
TTITLE11=Human Tornado
EXTD=
EXTT0=
EXTT1=
EXTT2=
EXTT3=
EXTT4=
EXTT5=
EXTT6=
EXTT7=
EXTT8=
EXTT9=
EXTT10=
EXTT11=
PLAYORDER=
